<?xml version="1.0" encoding="utf-8"?>
<!-- Generator: Adobe Illustrator 21.1.0, SVG Export Plug-In . SVG Version: 6.00 Build 0)  -->
<svg version="1.1" id="Layer_1" xmlns="http://www.w3.org/2000/svg" xmlns:xlink="http://www.w3.org/1999/xlink" x="0px" y="0px"
	 viewBox="-526 407 234.7 173.9" style="enable-background:new -526 407 234.7 173.9;" xml:space="preserve">
<style type="text/css">
	.st0{fill:#EBEBEB;}
	.st1{fill:#002841;}
	.st2{fill:#59C1A2;}
</style>
<g>
	<g id="XMLID_216_">
		<path class="st0" d="M-418.1,580.9c-4.1,0-8.2-0.1-12.3-0.4c-20.5-1.2-40.5-5.4-59.5-12.5c-10.7-4-39.2-14.5-35.8-38.3
			c1.4-9.6,8.2-18.6,19.3-25.3c9.2-5.6,20.4-9.2,30.1-9.5l0.3,7.2c-15.7,0.6-40.1,12-42.5,28.7c-2.3,16,15.5,24.7,31.2,30.5
			c18.3,6.8,37.7,10.9,57.5,12.1c28.8,1.7,59.7-3,82.9-12.7c30.3-12.7,46.6-32.5,48.4-58.9c1.5-20.8-9.1-43.2-28.4-59.9l4.7-5.4
			c20.9,18.2,32.4,42.8,30.8,65.9c-2,29-20.3,51.4-52.8,65C-365.2,576.1-392,580.9-418.1,580.9z"/>
	</g>
	<g id="XMLID_215_">
		<path class="st1" d="M-330.6,450.8c-8.8,0-16-7.2-16-16s7.2-16,16-16s16,7.2,16,16S-321.8,450.8-330.6,450.8z M-330.6,427.8
			c-3.9,0-7,3.2-7,7s3.2,7,7,7s7-3.2,7-7S-326.7,427.8-330.6,427.8z"/>
	</g>
	<path class="st2" d="M-363.4,430.9c-0.6-1-1.6-1.9-2.6-2.9c-12.7-12.9-30.3-21-49.8-21c-38.4,0-69.7,31.3-69.7,69.7
		s31.3,69.7,69.7,69.7s69.7-31.3,69.7-69.7C-346.1,459.2-352.7,443.1-363.4,430.9z M-422,443.7c-17,3-27.2,16.8-27.2,33
		c0,18.5,15.1,33.6,33.6,33.6c5.2,0,10.3-1.2,15-3.5l14.1,18.6c-8.8,5.3-18.7,8-29.1,8c-31.3,0-56.7-25.5-56.7-56.7
		c0-29.2,21.3-53.2,50.3-56.4L-422,443.7L-422,443.7z M-417.2,455.6c0.1,0,0.3,0,0.5,0c0.3,0,0.8,0,1.3-0.1c0.2,0,0.3,0,0.5,0
		s0.3,0,0.6,0h0.2c0.8,0.1,1.6,0.2,2.3,0.3c0.5,0.1,1,0.2,1.5,0.3c0.5,0.1,0.9,0.2,1.4,0.4c1,0.3,2,0.7,2.9,1.2
		c0.5,0.2,1,0.5,1.4,0.8c0.5,0.3,1,0.6,1.5,1c1.1,0.8,2.1,1.6,2.9,2.5c0.6,0.7,1.1,1.2,1.5,1.7c0.5,0.6,1,1.3,1.4,2.1
		c1.5,2.6,2.5,5.3,2.9,8.2c0,0.3,0.1,0.7,0.1,1.1v0.4c0,0.3,0,0.6,0,1.1c0,0.2,0,0.5,0,0.7c0,0.1,0,0.2,0,0.4v0.5
		c-0.4,5.6-2.9,10.7-7.2,14.4c-0.3,0.3-0.7,0.6-1.1,0.9l-0.3,0.3c-0.3,0.2-0.6,0.5-0.9,0.6c-3.5,2.3-7.5,3.5-11.6,3.5
		c-11.7,0-21.2-9.5-21.2-21.2C-436.6,465.8-428.1,456.5-417.2,455.6z M-390.7,499.4c4.1-4.6,7-10.3,8.1-16.3h23.4
		c-1.4,13-7.6,25.7-17.4,34.9L-390.7,499.4z"/>
</g>
</svg>
