<?xml version="1.0" encoding="utf-8"?>
<!-- Generator: Adobe Illustrator 21.1.0, SVG Export Plug-In . SVG Version: 6.00 Build 0)  -->
<svg version="1.1" id="Layer_1" xmlns="http://www.w3.org/2000/svg" xmlns:xlink="http://www.w3.org/1999/xlink" x="0px" y="0px"
	 viewBox="-619 474.1 60.5 53.9" style="enable-background:new -619 474.1 60.5 53.9;" xml:space="preserve">
<style type="text/css">
	.st0{fill:#59C1A2;}
</style>
<path class="st0" d="M-564.7,489.6c0,0.5,0,1.1,0,1.6c0,16.4-12.5,35.3-35.3,35.3c-7,0-13.5-2.1-19-5.6c1,0.2,2,0.2,3,0.2
	c5.8,0,11.2-2,15.4-5.3c-5.4-0.1-10-3.7-11.6-8.6c0.8,0.1,1.5,0.2,2.3,0.2c1.1,0,2.2-0.2,3.3-0.4c-5.7-1.1-10-6.2-10-12.2
	c0-0.1,0-0.1,0-0.2c1.7,1,3.6,1.5,5.7,1.6c-3.3-2.2-5.5-6-5.5-10.3c0-2.3,0.6-4.4,1.7-6.2c6.1,7.5,15.3,12.5,25.6,13
	c-0.2-0.9-0.3-1.9-0.3-2.8c0-6.9,5.6-12.4,12.4-12.4c3.6,0,6.8,1.5,9.1,3.9c2.8-0.6,5.5-1.6,7.9-3c-0.9,2.9-2.9,5.3-5.5,6.9
	c2.5-0.3,4.9-1,7.1-1.9C-560.2,485.7-562.3,487.9-564.7,489.6z"/>
</svg>
