<?xml version="1.0" encoding="utf-8"?>
<!-- Generator: Adobe Illustrator 21.1.0, SVG Export Plug-In . SVG Version: 6.00 Build 0)  -->
<svg version="1.1" id="Layer_1" xmlns="http://www.w3.org/2000/svg" xmlns:xlink="http://www.w3.org/1999/xlink" x="0px" y="0px"
	 viewBox="-526 387 166 167.6" style="enable-background:new -526 387 166 167.6;" xml:space="preserve">
<style type="text/css">
	.st0{fill:#59C1A2;stroke:#59C1A2;stroke-miterlimit:10;}
	.st1{fill:#59C1A2;}
</style>
<path class="st0" d="M-403.6,490v3.7c0,1.2,1.4,2.2,2.9,2.2s2.9-1,2.9-2.2V490c5.6-0.6,10.1-3.3,11.6-7.6c1.4-3.9,0.7-8.2-2.3-11.3
	c-1.7-1.8-3.9-2.8-6.1-3.8c-2.5-1.2-5.2-2.4-7.8-3.3c-2.2-0.8-4.5-1.7-5.8-3.5c-1.1-1.5-1.3-3.4-0.9-5.1c0.3-1.2,0.8-2.4,1.8-3.2
	c1.5-1.4,3.7-1.9,5.8-2c1.7-0.1,3.3,0.1,4.8,0.8c1.5,0.6,2.8,1.7,3.5,3.1c0.4,0.9,0.6,1.8,1.3,2.6c1.1,1.1,3.3,1.1,4.3-0.1
	c0.2-0.3,0.4-0.6,0.5-0.9c0.1-0.4,0-0.7-0.1-1.1c-1.2-4.4-5.6-8-10.5-8.6c-0.3,0,0.1-3.2,0.1-3.4c-0.1-1.5-1-2.6-2.6-2.7
	c-1-0.1-2.1,0.3-2.7,1c-1.1,1.4-0.2,3.3-0.5,4.9c-3.7,0.2-7.2,2-9.4,4.7c-2.4,3-3,6.9-1.7,10.4c1.7,4.3,5.7,6.1,10,7.8
	c2.3,1,4.7,1.9,7,2.8c1.9,0.8,3.9,1.6,5.2,3.2c1.5,1.8,1.6,4.3,0.9,6.4c-0.8,2.5-3.4,3.8-6.1,4.2c-1.6,0.2-3.5,0.3-5,0.1
	c-3.8-0.4-6.7-2.4-7.6-5.7c-0.5-1.2-1.8-2.1-3.4-1.8c-0.7,0.2-1.4,0.6-1.8,1c-0.5,0.6-0.5,1-0.2,1.6
	C-414.3,485.7-409.8,489.2-403.6,490z"/>
<path class="st1" d="M-360.2,540.6l-9.2-25.3v-89.1c0-7.5-5.9-13.7-12.9-13.7H-445c-0.3,2.2-0.8,4.3-1.3,6.5h63.5
	c3.5,0,6.5,3.2,6.5,7.3v86.3h-133.8v-57.3c-2.4-2.7-4.6-5.4-6.5-8.3v68.4l-9.1,24.7v0.5c-0.8,3.5,0,7,2.4,9.7
	c2.2,2.7,5.7,4.3,9.2,4.3h142.7c3.5,0,7-1.6,9.2-4.3C-360.4,547.6-359.6,544.1-360.2,540.6z M-367.7,546.3c-1.1,1.3-2.4,1.9-4,1.9
	h-142.7c-1.6,0-3-0.8-4-1.9c-1.1-1.1-1.3-2.7-1.1-4l8.3-22.9h135.9l8.3,22.9C-366.4,543.6-366.6,545.2-367.7,546.3z"/>
<path class="st1" d="M-426.1,442.9v6.5h-34.2c1.6-2.2,3-4.3,4.3-6.5H-426.1z"/>
<path class="st1" d="M-493.1,469.5l1.9,1.1h-9.2v-6.2c2.2,1.6,4.3,3.2,6.5,4.6C-493.4,469.3-493.4,469.3-493.1,469.5z"/>
<path class="st1" d="M-457.1,463.9v6.5h-26.6l2.2-1.3l0.3-0.3c2.4-1.6,4.8-3.2,7-5.1h17.2v0.2L-457.1,463.9L-457.1,463.9z"/>
<rect x="-450.9" y="463.9" class="st1" width="24.8" height="6.5"/>
<rect x="-500.1" y="485.2" class="st1" width="23.4" height="6.5"/>
<rect x="-470.5" y="485.2" class="st1" width="44.4" height="6.5"/>
<path class="st1" d="M-472.9,409c-0.2,0-0.4,0-0.5,0c-2,0.3-3.4,2.6-4.8,3.9c-1.8,1.7-3.6,3.5-5.4,5.2l-0.3,0.3
	c-2.7,2.7-5.7,5.4-8.3,8.1l-0.5,0.5l-6.5-6.7c-3.4-3.3-8.2,1.8-4.9,5.1c2.1,2.1,4.3,4.3,6.4,6.4c2,2,5,5.7,7.9,2.8
	c2.7-2.7,5.9-5.9,10-9.7c3.5-3.2,7-6.7,9.7-9.4l0.3-0.3c1.1-1.1,1.1-3,0.3-4.3C-470.3,409.8-471.5,409-472.9,409z"/>
<path class="st1" d="M-455.4,397.4c-2.7-0.8-15.1-5.4-26.1-9.4c-3.8-1.3-8.1-1.3-12.1,0c-10.8,4-23.4,8.6-26.1,9.4
	c-4.6,1.3-4.8,6.2-4.3,10.1c2.8,22.7,13.8,42.6,33,55.4c0.4,0.2,0.7,0.5,1.1,0.7l0.3,0.3l2.2,1.3l2.7-1.6
	c18.6-11,30.1-31.5,33.5-52.3C-450.3,406.3-449,399.3-455.4,397.4z M-456.9,404.1c0.3,1.6-0.7,5.1-0.8,5.9
	c-1.7,9.9-4.9,19.4-10.4,27.9c-2.5,4-5.5,7.6-8.8,11c-1,1-9.8,9.8-10.9,9.1c-17.3-11.8-28.4-31.6-30.4-52.3
	c-0.2-2.3,0.6-2.3,2.5-2.9c2.2-0.7,4.3-1.5,6.5-2.3c5.9-2.1,11.8-4.3,17.7-6.4c1.3-0.5,2.4-0.8,3.8-0.8c1.3,0,2.7,0.3,3.8,0.8
	c11,4,23.7,8.6,26.4,9.4C-457.2,403.3-457,403.6-456.9,404.1z"/>
</svg>
