<?xml version="1.0" encoding="utf-8"?>
<!-- Generator: Adobe Illustrator 21.1.0, SVG Export Plug-In . SVG Version: 6.00 Build 0)  -->
<svg version="1.1" id="Layer_1" xmlns="http://www.w3.org/2000/svg" xmlns:xlink="http://www.w3.org/1999/xlink" x="0px" y="0px"
	 viewBox="-506 414 286 157.6" style="enable-background:new -506 414 286 157.6;" xml:space="preserve">
<style type="text/css">
	.st0{fill:#EBEBEB;}
	.st1{fill:#59C1A2;}
	.st2{fill:#002841;}
</style>
<g>
	<polygon class="st0" points="-476,503 -479.6,496.8 -415,460.4 -381.6,488.6 -357.6,462.6 -333.5,483.8 -247.5,432.6 -243.9,438.8 
		-334.2,492.6 -357,472.6 -381.1,498.5 -415.8,469.1 	"/>
</g>
<path class="st1" d="M-275.5,562.2l-29.1-29.1c10.4-12.1,16.6-27.8,16.6-45c0-38.2-31.1-69.3-69.3-69.3s-69.3,31.1-69.3,69.3
	c0,38.2,31.1,69.3,69.3,69.3c16.2,0,31.2-5.6,43-15l29.2,29.2L-275.5,562.2z M-413.1,488.2c0-30.8,25.1-55.9,55.9-55.9
	s55.9,25.1,55.9,55.9s-25.1,55.9-55.9,55.9S-413.1,519-413.1,488.2z"/>
<g>
	<path class="st2" d="M-489.2,517.6c-8.8,0-16-7.2-16-16s7.2-16,16-16s16,7.2,16,16S-480.5,517.6-489.2,517.6z M-489.2,494.6
		c-3.9,0-7,3.2-7,7s3.2,7,7,7s7-3.2,7-7S-485.4,494.6-489.2,494.6z"/>
</g>
<g>
	<path class="st2" d="M-236.8,446c-8.8,0-16-7.2-16-16s7.2-16,16-16s16,7.2,16,16S-228,446-236.8,446z M-236.8,423c-3.9,0-7,3.2-7,7
		s3.2,7,7,7s7-3.2,7-7S-232.9,423-236.8,423z"/>
</g>
</svg>
