<svg xmlns="http://www.w3.org/2000/svg" viewBox="0 0 267.58 87.28"><defs><style>.cls-1{fill:#002841;}</style></defs><title>Asset 1</title><g id="Layer_2" data-name="Layer 2"><g id="Layer_1-2" data-name="Layer 1"><path class="cls-1" d="M115.73,54a3.31,3.31,0,0,0-5.63,0l-14,26.81c-.92,1.77.57,3.77,2.82,3.77H127c2.25,0,3.75-2,2.82-3.78Zm-12.56,24.6L112.92,60l9.85,18.7Z"/><polygon class="cls-1" points="62.03 19.71 72.09 19.71 72.09 12.91 62.03 12.91 62.03 6.86 79.34 6.86 79.34 0 55.07 0 55.07 35.03 80.09 35.03 80.09 28.17 62.03 28.17 62.03 19.71"/><path class="cls-1" d="M110.69,32.2a2.76,2.76,0,0,0,4.67,0L129.77,4.81c.76-1.45-.48-3.1-2.34-3.1H98.49c-1.86,0-3.1,1.65-2.33,3.1Z"/><polygon class="cls-1" points="172.86 28.17 154.8 28.17 154.8 19.71 164.85 19.71 164.85 12.91 154.8 12.91 154.8 6.86 172.11 6.86 172.11 0 147.84 0 147.84 35.03 172.86 35.03 172.86 28.17"/><path class="cls-1" d="M214.34,14.81q0,.75,0,1.85t0,2.23q0,1.13,0,2.1t0,1.48a20.73,20.73,0,0,0-1.07-1.83L212,18.51,199.63,0h-6.76V35h7V19.61q0-.75,0-1.85t0-2.23q0-1.13,0-2.1t0-1.48a20.29,20.29,0,0,0,1.08,1.83l1.38,2.13L215,35h6.25V0h-7Z"/><polygon class="cls-1" points="240.51 0 240.51 6.91 250.57 6.91 250.57 35.03 257.52 35.03 257.52 6.91 267.58 6.91 267.58 0 240.51 0"/><path class="cls-1" d="M23.59,68.37a13.66,13.66,0,0,0-3.75-1.88q-2.08-.68-4.18-1.18t-3.45-.9a10.62,10.62,0,0,1-2.15-.85,2.84,2.84,0,0,1-1.13-1,2.85,2.85,0,0,1-.33-1.43A2.74,2.74,0,0,1,8.86,60a2.63,2.63,0,0,1,.85-1,4.79,4.79,0,0,1,1.55-.73A8.59,8.59,0,0,1,13.61,58a9.87,9.87,0,0,1,4.33.93,12.85,12.85,0,0,1,3.63,2.68l5.05-4.9A18.91,18.91,0,0,0,21,52.61a16.68,16.68,0,0,0-7.18-1.45,16.52,16.52,0,0,0-4.88.7,12.28,12.28,0,0,0-4,2,9.61,9.61,0,0,0-2.68,3.23,9.29,9.29,0,0,0-1,4.3,10.46,10.46,0,0,0,.8,4.35,7.74,7.74,0,0,0,2.25,2.9,12.57,12.57,0,0,0,3.48,1.9,35.73,35.73,0,0,0,4.43,1.3q2.45.55,4,1.05A9.88,9.88,0,0,1,18.69,74a3.11,3.11,0,0,1,1.13,1.18,3.38,3.38,0,0,1,.3,1.48,3.14,3.14,0,0,1-1.48,2.9,9.16,9.16,0,0,1-4.63.9,12.69,12.69,0,0,1-4.83-.93,10.84,10.84,0,0,1-4.13-3.08L0,80.93a13.59,13.59,0,0,0,5.6,4.65,18.51,18.51,0,0,0,8,1.7,21,21,0,0,0,6.18-.8,11.75,11.75,0,0,0,4.28-2.28,8.89,8.89,0,0,0,2.5-3.53,12.44,12.44,0,0,0,.8-4.55,8.85,8.85,0,0,0-3.78-7.76Z"/><polygon class="cls-1" points="68.65 65.11 54.24 65.11 54.24 51.7 47.28 51.7 47.28 86.73 54.24 86.73 54.24 72.02 68.65 72.02 68.65 86.73 75.61 86.73 75.61 51.7 68.65 51.7 68.65 65.11"/><path class="cls-1" d="M173.85,69.29a11.51,11.51,0,0,0,1.68-6.48,11.63,11.63,0,0,0-1-4.88,9.9,9.9,0,0,0-2.6-3.48,10.77,10.77,0,0,0-3.85-2.08,15.78,15.78,0,0,0-4.65-.68H147.21v35h7V74.12h7.06l6.25,12.61h8.06l-6.71-13.61A10.26,10.26,0,0,0,173.85,69.29Zm-10.53-1.73h-9.16v-9h9.16a5.88,5.88,0,0,1,3.68,1A4.07,4.07,0,0,1,168.32,63Q168.32,67.57,163.32,67.57Z"/><polygon class="cls-1" points="202.4 71.42 212.46 71.42 212.46 64.61 202.4 64.61 202.4 58.56 219.71 58.56 219.71 51.7 195.44 51.7 195.44 86.73 220.46 86.73 220.46 79.88 202.4 79.88 202.4 71.42"/><path class="cls-1" d="M261.62,68.37a13.66,13.66,0,0,0-3.75-1.88q-2.08-.68-4.18-1.18t-3.45-.9a10.62,10.62,0,0,1-2.15-.85,2.5,2.5,0,0,1-1.45-2.45,2.74,2.74,0,0,1,.25-1.15,2.63,2.63,0,0,1,.85-1,4.79,4.79,0,0,1,1.55-.73,8.59,8.59,0,0,1,2.35-.28,9.87,9.87,0,0,1,4.33.93,12.85,12.85,0,0,1,3.63,2.68l5.05-4.9a18.91,18.91,0,0,0-5.58-4.05A18,18,0,0,0,247,51.86a12.28,12.28,0,0,0-4,2,9.61,9.61,0,0,0-2.68,3.23,9.29,9.29,0,0,0-1,4.3,10.46,10.46,0,0,0,.8,4.35,7.74,7.74,0,0,0,2.25,2.9,12.57,12.57,0,0,0,3.48,1.9,35.73,35.73,0,0,0,4.43,1.3q2.45.55,4,1.05A9.88,9.88,0,0,1,256.71,74a3.11,3.11,0,0,1,1.13,1.18,3.38,3.38,0,0,1,.3,1.48,3.14,3.14,0,0,1-1.48,2.9,9.16,9.16,0,0,1-4.63.9,12.69,12.69,0,0,1-4.83-.93,10.84,10.84,0,0,1-4.13-3.08L238,80.93a13.59,13.59,0,0,0,5.6,4.65,18.51,18.51,0,0,0,8,1.7,21,21,0,0,0,6.18-.8,11.75,11.75,0,0,0,4.28-2.28,8.89,8.89,0,0,0,2.5-3.53,12.44,12.44,0,0,0,.8-4.55,8.85,8.85,0,0,0-3.78-7.76Z"/></g></g></svg>