<?xml version="1.0" encoding="utf-8"?>
<!-- Generator: Adobe Illustrator 19.0.0, SVG Export Plug-In . SVG Version: 6.00 Build 0)  -->
<svg version="1.1" id="Layer_1" xmlns="http://www.w3.org/2000/svg" xmlns:xlink="http://www.w3.org/1999/xlink" x="0px" y="0px"
	 viewBox="0 0 30.1 30.1" style="enable-background:new 0 0 30.1 30.1;" xml:space="preserve">
<style type="text/css">
	.st0{fill:#FFFFFF;}
</style>
<g>
	<path class="st0" d="M15.3,13.8L15.3,13.8C15.3,13.8,15.3,13.8,15.3,13.8L15.3,13.8z"/>
	<rect x="8.9" y="12.7" class="st0" width="2.5" height="7.6"/>
	<path class="st0" d="M10.2,11.7L10.2,11.7c-0.9,0-1.4-0.6-1.4-1.3c0-0.7,0.6-1.3,1.4-1.3c0.9,0,1.4,0.6,1.4,1.3
		C11.6,11.1,11,11.7,10.2,11.7z"/>
	<path class="st0" d="M20.5,20.3H18v-4c0-1-0.4-1.7-1.3-1.7c-0.7,0-1.1,0.5-1.3,0.9c-0.1,0.2-0.1,0.4-0.1,0.6v4.2h-2.5
		c0,0,0-6.9,0-7.6h2.5v1.1c0.3-0.5,0.9-1.2,2.3-1.2c1.7,0,2.9,1.1,2.9,3.4V20.3z"/>
</g>
</svg>
