<?xml version="1.0" encoding="utf-8"?>
<!-- Generator: Adobe Illustrator 21.1.0, SVG Export Plug-In . SVG Version: 6.00 Build 0)  -->
<svg version="1.1" id="Layer_1" xmlns="http://www.w3.org/2000/svg" xmlns:xlink="http://www.w3.org/1999/xlink" x="0px" y="0px"
	 viewBox="-619 474.1 60.5 53.9" style="enable-background:new -619 474.1 60.5 53.9;" xml:space="preserve">
<style type="text/css">
	.st0{fill:#59C1A2;}
</style>
<g id="XMLID_366_">
	<rect id="XMLID_369_" x="-615.1" y="492" class="st0" width="11.6" height="34.9"/>
	<path id="XMLID_368_" class="st0" d="M-575,491.2c-6.2,0-8.9,3.4-10.5,5.8v0.1h-0.1l0.1-0.1v-4.9h-11.6c0.1,3.3,0,34.9,0,34.9h11.6
		v-19.6c0-1.1,0.1-2.1,0.4-2.8c0.8-2.1,2.8-4.3,6-4.3c4.2,0,5.9,3.2,5.9,7.9v18.7h11.6v-20C-561.7,496.2-567.4,491.2-575,491.2z"/>
	<path id="XMLID_367_" class="st0" d="M-609.3,475.2c-4,0-6.6,2.6-6.6,6s2.5,6,6.4,6h0.1c4,0,6.6-2.7,6.6-6
		C-602.8,477.8-605.3,475.2-609.3,475.2z"/>
</g>
</svg>
