<?xml version="1.0" standalone="no"?>
<!DOCTYPE svg PUBLIC "-//W3C//DTD SVG 20010904//EN"
 "http://www.w3.org/TR/2001/REC-SVG-20010904/DTD/svg10.dtd">
<svg version="1.0" xmlns="http://www.w3.org/2000/svg"
 width="300.000000pt" height="300.000000pt" viewBox="0 0 300.000000 300.000000"
 preserveAspectRatio="xMidYMid meet">
<metadata>
Created by potrace 1.14, written by Peter Selinger 2001-2017
</metadata>
<g transform="translate(0.000000,300.000000) scale(0.100000,-0.100000)"
fill="#ffffff" stroke="none">
<path d="M1134 2226 c-109 -35 -172 -74 -259 -161 -147 -146 -209 -312 -214
-570 -7 -441 231 -717 619 -719 122 -1 211 23 312 83 71 43 238 190 238 209 0
7 7 12 16 10 8 -2 27 -32 41 -68 73 -183 181 -269 305 -241 66 15 113 46 135
89 15 30 18 61 18 164 0 69 -3 130 -7 134 -10 10 -61 -14 -54 -25 8 -12 -20
-115 -45 -162 -56 -110 -176 -65 -255 96 -46 94 -57 165 -51 310 8 176 73 406
196 693 34 78 61 144 61 147 0 3 -29 5 -64 5 l-64 0 -57 -102 c-87 -157 -178
-308 -185 -308 -3 0 -17 26 -30 58 -52 129 -156 256 -260 319 -109 66 -265 81
-396 39z m303 -117 c171 -82 283 -307 286 -579 2 -145 -4 -207 -33 -308 -38
-137 -105 -235 -196 -288 -55 -32 -176 -57 -234 -49 -147 22 -285 178 -335
380 -61 248 -20 577 90 721 14 18 25 37 25 43 0 14 74 68 120 88 46 20 125 31
175 26 22 -3 68 -18 102 -34z"/>
</g>
</svg>
