<?xml version="1.0" standalone="no"?>
<!DOCTYPE svg PUBLIC "-//W3C//DTD SVG 20010904//EN"
 "http://www.w3.org/TR/2001/REC-SVG-20010904/DTD/svg10.dtd">
<svg version="1.0" xmlns="http://www.w3.org/2000/svg"
 width="128.000000pt" height="128.000000pt" viewBox="0 0 128.000000 128.000000"
 preserveAspectRatio="xMidYMid meet">
<metadata>
Created by potrace 1.14, written by Peter Selinger 2001-2017
</metadata>
<g transform="translate(0.000000,128.000000) scale(0.100000,-0.100000)"
fill="#0d374b" stroke="none">
<path d="M35 1228 c-3 -24 -5 -261 -3 -528 l3 -485 102 -3 102 -3 3 -99 3
-100 125 98 125 97 375 5 c206 3 374 8 373 13 -2 4 -3 241 -3 527 l0 520 -599
0 -600 0 -6 -42z m532 -174 c27 -9 51 -19 56 -23 8 -8 -50 -121 -61 -121 -4 0
-16 7 -26 15 -23 17 -88 20 -117 5 -11 -6 -19 -21 -19 -36 0 -26 16 -36 135
-79 97 -36 136 -108 115 -211 -13 -63 -46 -106 -104 -137 -33 -18 -57 -22
-126 -22 -72 1 -95 5 -147 29 -35 16 -63 30 -63 33 0 9 61 123 66 123 3 0 25
-12 49 -26 78 -45 165 -28 165 32 0 29 -25 45 -115 74 -89 29 -131 68 -140
131 -16 105 49 204 150 230 40 11 123 3 182 -17z m511 -61 l3 -62 -67 -3 -67
-3 2 -232 2 -233 -80 0 -81 0 0 235 0 235 -65 0 -65 0 0 65 0 65 208 -2 207
-3 3 -62z"/>
</g>
</svg>
