<?xml version="1.0" encoding="utf-8"?>
<!-- Generator: Adobe Illustrator 19.0.0, SVG Export Plug-In . SVG Version: 6.00 Build 0)  -->
<svg version="1.1" id="Layer_1" xmlns="http://www.w3.org/2000/svg" xmlns:xlink="http://www.w3.org/1999/xlink" x="0px" y="0px"
	 viewBox="0 0 30.1 30.1" style="enable-background:new 0 0 30.1 30.1;" xml:space="preserve">
<style type="text/css">
	.st0{fill:#FFFFFF;}
</style>
<path class="st0" d="M18.6,12.3c0,0.1,0,0.2,0,0.3c0,3.2-2.4,6.8-6.8,6.8c-1.4,0-2.6-0.4-3.7-1.1c0.2,0,0.4,0,0.6,0
	c1.1,0,2.2-0.4,3-1c-1.1,0-1.9-0.7-2.2-1.7c0.1,0,0.3,0,0.5,0c0.2,0,0.4,0,0.6-0.1c-1.1-0.2-1.9-1.2-1.9-2.4c0,0,0,0,0,0
	c0.3,0.2,0.7,0.3,1.1,0.3c-0.6-0.4-1.1-1.2-1.1-2c0-0.4,0.1-0.9,0.3-1.2c1.2,1.5,3,2.4,5,2.5c0-0.2-0.1-0.4-0.1-0.5
	c0-1.3,1.1-2.4,2.4-2.4c0.7,0,1.3,0.3,1.8,0.8c0.5-0.1,1.1-0.3,1.5-0.6c-0.2,0.6-0.6,1-1.1,1.3c0.5-0.1,1-0.2,1.4-0.4
	C19.5,11.5,19.1,11.9,18.6,12.3z"/>
</svg>
