<?xml version="1.0" encoding="utf-8"?>
<!-- Generator: Adobe Illustrator 21.1.0, SVG Export Plug-In . SVG Version: 6.00 Build 0)  -->
<svg version="1.1" id="Layer_1" xmlns="http://www.w3.org/2000/svg" xmlns:xlink="http://www.w3.org/1999/xlink" x="0px" y="0px"
	 viewBox="-526 387 235.1 202.8" style="enable-background:new -526 387 235.1 202.8;" xml:space="preserve">
<style type="text/css">
	.st0{fill:#59C1A2;}
</style>
<path class="st0" d="M-413.5,549.8v6.8c0,2.3,2.3,4.1,4.9,4.1s4.9-1.9,4.9-4.1v-6.8c9.4-1.1,17-6,19.6-13.9
	c2.4-7.2,1.2-15.1-3.8-20.9c-2.8-3.2-6.5-5.1-10.3-7c-4.3-2.3-8.7-4.4-13.2-6.2c-3.7-1.4-7.5-3-9.8-6.5c-1.8-2.8-2.2-6.3-1.5-9.5
	c0.5-2.2,1.4-4.3,3-5.9c2.5-2.6,6.3-3.6,9.8-3.7c2.8-0.1,5.6,0.3,8.2,1.4s4.8,3.1,6,5.6c0.7,1.6,1.1,3.4,2.2,4.7
	c1.8,2.1,5.5,2,7.3-0.1c0.4-0.5,0.7-1,0.8-1.6c0.1-0.7,0-1.3-0.2-2c-2.1-8.1-9.4-14.6-17.8-15.8c-0.5-0.1,0.1-5.8,0.1-6.3
	c-0.2-2.7-1.7-4.7-4.5-5c-1.7-0.2-3.6,0.5-4.6,1.9c-1.8,2.5-0.3,6-0.8,9.1c-6.2,0.4-12.2,3.6-15.9,8.6c-4,5.5-5.1,12.7-2.8,19.1
	c2.9,7.9,9.7,11.2,16.9,14.4c4,1.8,8,3.4,11.9,5.2c3.3,1.5,6.6,3,8.8,6c2.5,3.4,2.8,7.8,1.5,11.8c-1.4,4.5-5.8,7.1-10.3,7.7
	c-2.7,0.4-5.8,0.5-8.5,0.2c-6.4-0.8-11.3-4.5-12.8-10.5c-0.8-2.3-3-3.8-5.7-3.4c-1.1,0.4-2.3,1.1-3,1.9c-0.8,1.1-0.8,1.9-0.4,3
	C-431.6,541.9-424,548.3-413.5,549.8z"/>
<path class="st0" d="M-311.8,453c-2.3-2.3-9.4-10.2-13.9-13.9c1.5-2.3,2.6-4.5,3.8-6.8l1.9-4.1c2.3-4.1,4.5-8.7,6.8-12.8
	c0.4-0.8,0.8-1.5,0.8-2.6s-0.4-1.9-1.1-3c-1.1-1.1-2.6-1.9-4.1-1.9c-1.9,0-3.8,0.8-5.7,1.5l-1.9,0.8c-2.6,1.1-5.7,1.9-8.7,2.3
	c-2.3,0.4-3.8,0.4-5.7,0.4c-3.4-0.4-6.8-0.8-9.4-1.9c-1.1-0.4-2.3-0.8-3.4-1.1c-3-1.1-5.7-2.3-8.7-2.6c-0.8,0-1.9,0-2.6,0
	c1.9-3.8,3.8-7.2,5.7-10.9c0.4-1.1,1.1-1.9,1.1-3s-0.4-2.3-1.1-3c-1.1-1.1-3-1.9-4.9-2.3s-4.5,1-6.2,1.7c-4.6,1.8-9.1,3.3-14.1,3.6
	c-3,0.4-5.3,0.4-7.5,0.4c-4.5-0.4-8.3-1.1-12.4-2.3c-1.5-0.4-2.6-1.1-4.1-1.5c-3.4-1.5-7.2-3-10.9-3c-1.5,0-3,0-4.1,0.4
	c-3,1.1-6,2.4-9.1,3s-5.6,0-8.6-1.1c-1.9-0.8-3.8-1.5-6-1.9c-2.6,0-5.7,1.1-6,4.1c-0.4,2.3,0.4,4.1,1.5,5.7l1.9,3.8
	c-3-0.4-5.7-0.8-8.3-1.9c-1.1-0.4-2.3-0.8-3.4-1.1c-3-1.1-5.7-2.3-9-2.6c-1.1,0-2.6,0-3.4,0.4c-3,1.5-6.2,3.4-9.7,3.6
	c-4.7,0.3-13-6.3-15.2,1.4c0,1.5,0.8,3.4,1.5,4.5l8.3,15.4c0.3,0.7,1.2,1.8,1,2.5c-0.2,0.5-1.8,1.2-2.3,1.5
	c-1.6,1.1-3.1,2.2-4.5,3.4c-2.9,2.4-5.7,5.1-8.1,8c-8.5,9.8-13.5,21.9-17.3,34.2c-3.8,12.4-6,26-6.8,39.9v3
	c-0.8,15.1-1.5,32,18.5,33.9c1.9,0.4,4.1,0,5.7,0c1.1,0,1.9,0,2.6,0c1.9,0,3.4,0,4.5,0.4c1.9,0.4,4.1,1.5,6,2.3
	c0.8,13.2,5.3,24.5,22.6,26.4c2.3,0.4,4.9,0,7.2,0c1.1,0,2.3,0,3.4,0c2.3,0,4.1,0.4,6,0.8c4.1,1.1,8.3,3.4,12.1,5.3
	c3.4,1.9,6.8,3.8,10.5,4.9c5.7,1.9,12.1,2.6,20.3,2.6c1.9,0,4.1,0,6.8,0c4.9,0,9.8-0.8,15.1-1.1c4.1-0.4,8.7-0.8,12.8-1.1
	c4.5-0.4,9.8,0.8,14.7,1.5c4.1,0.8,8.7,1.5,12.8,1.5c1.1,0,2.3,0,3,0c3.4-0.4,6-1.9,7.5-3.8c3-4.1,1.9-11.3,0.8-18.1c0,0,0,0,0-0.4
	c2.6-0.4,5.7-0.8,8.3-0.8c3.8,0,7.5,0.8,11.7,1.1c3.4,0.8,7.2,1.1,10.2,1.1c0.8,0,1.9,0,2.6,0c3-0.4,5.3-1.5,6.4-3.4
	c2.6-3.8,1.5-9.4,0.8-15.1c-0.8-3.4-1.1-6.8-0.8-9l0.4-2.3c1.1-7.5,2.3-15.1,2.3-23c0.4-15.8-1.9-29.8-6.4-41.8
	C-300.5,467.6-305.4,460.1-311.8,453z M-362.6,415.7c0.4,0,0.4,0,1.1,0c1.5,0,3.8,1.1,6,1.9c1.1,0.4,2.3,1.1,3.8,1.5
	c3.8,1.5,7.9,2.3,12.1,2.3c2.3,0,4.5,0,7.2-0.4c2.3-0.4,4.9-0.8,7.2-1.5l-4.5,8.7c-1.5,3-3,6-4.9,7.5c-1.4,1.4-3.9,1.3-5.8,1.6
	c-2.4,0.4-4.8,0.6-7.2,0.8c-4.2,0.3-9.5,1-13.6,0c-2.3-0.5-3.6-3.1-5.2-4.7c-1.7-1.6-3.6-3.4-5-5.3c-0.2-0.3-1.8-3-1.7-3.2
	c1.5-1.9,2.6-4.1,3.8-6.4c1.9-0.4,3.4-1.1,4.5-1.9C-364.5,416.4-363.4,415.7-362.6,415.7z M-419.9,395.7c0.4,0,0.8,0,1.5,0
	c3.6,0,7.3,2.1,10.7,3.3c5.3,2.1,11.5,3.9,17.2,3.9c2.6,0,5.7,0,9-0.4c3-0.4,6.8-1.1,10.2-2.3l-4.9,9.4l-1.5,2.6
	c-2,4-4.1,7.7-7.4,10.9c-0.5,0.5-1.2,0.6-1.8,0.7c-11.1,1.7-22.4,3.1-33.5,1c-0.4-0.1-0.8-0.2-1.2-0.3c-2.7-1-5.3-4.7-6.7-7.1
	c-1.1-1.9-2.3-3.8-3-5.7l-1.8-3.6l-4.1-8.3c1.1,0.4,2.3,0.4,3.4,0.4c0.4,0,0.8,0,0.8,0c4.5-0.4,7.9-1.9,10.5-3.4
	C-421.8,396.4-420.7,396.1-419.9,395.7z M-482.1,407.7c3.8,0,6.4-1.5,8.7-2.6c1-0.5,2.1-1.2,3.3-1.1c0.7,0,1.4,0.2,2.1,0.5
	c6.7,2.2,12.7,5.3,20,5.3c1.5,0,2.6,0,4.1,0l3.4,6.8c0.4,0.8,0.8,1.5,1.1,2.3c-0.6,0.8-0.8,1.8-1.4,2.5c-1.2,1.3-3.2,2.6-4.7,3.5
	c0,0,0,0-0.4,0c-5.3,0.8-10.9,1.5-16.6,1.5c-1.5,0-3,0-4.1,0c-2.3-0.4-3.8-0.4-5.3-0.8h-0.4c-0.4,0-0.8-0.4-1.1-0.4
	c-2.6-1.9-4.9-5.7-6.8-9.4l-4.5-8.7C-483.9,407.7-482.8,407.7-482.1,407.7z M-502.4,538.8h-0.4c-1.1,0-2.6,0-3.8,0
	c-9.4-1.1-11.3-5.3-10.5-24.9v-3c0.8-13.2,2.6-26,6.4-37.7c2.6-8.7,6.4-18.8,12.4-27.1c3.8-5.3,8.7-10.2,14.3-13.9l0.4-0.4
	c-0.1,0.1,4.2,1.9,4.6,2c1.7,0.5,3.3,1,5,1.5c4.1,1.2,8.1,1.4,12.3,1.4c1.1,0,2.6,0,3.8,0h0.4c-1.9,1.9-3.4,4.1-4.9,6
	c-8.7,11.8-13.6,25.7-17.4,37.4c-4.9,15.8-7.5,32.8-8.7,50.1c0,1.1,0,2.6,0,3.8c0,1.9,0,4.1-0.4,6c-1.1-0.4-2.3-0.8-3.8-1.1
	C-494.9,538.8-498.3,538.5-502.4,538.8z M-340.8,580.6c-0.1,0.1-0.2,0.1-0.3,0.1c-0.8,0-1.6,0-2.4,0c-5.1,0-10.1-1.6-15-2.5
	c-8.7-1.6-17.3-0.5-26.1,0.1h-1.1c-4.5,0.4-9,0.8-12.8,1.1h-0.4c-1.9,0-4.1,0-6,0c-7.5,0-12.8-0.8-17.7-2.3
	c-2.6-0.8-5.7-2.3-8.3-3.8l-0.8-0.4c-4.1-2.3-8.7-4.5-13.9-6c-2.6-0.8-5.3-1.1-8.7-1.1c-1.1,0-2.3,0-3.8,0h-0.8c-1.9,0-3.4,0-4.9,0
	c-7.9-0.8-11.7-3.8-13.2-10.9c-0.8-2.6-0.8-6-0.8-10.2c0-3,0-6.4,0.4-10.5v-4.1c0.8-16.6,3.4-32.8,8.3-47.8
	c3.4-10.9,7.9-23.7,15.8-34.7c3.8-5.7,8.7-10.5,13.9-15.1c1.1-1.1,2.6-1.9,4.1-3c0.4,0,0.8-0.4,0.8-0.4c2.3,1.5,4.9,2.3,7.5,3.4
	c9,3.3,19.1,4.1,28.6,3.3c5.3-0.4,10.6-0.9,15.5-3c0.5-0.2,0.9-0.5,1.4-0.6c0.7-0.2,1.1-0.4,1.7,0c0.6,0.5,1.2,1,1.8,1.4
	c2.6,2.3,6.4,6.4,10.9,10.9c1.5,1.5,3,3.4,4.9,5.3c7.2,7.9,12.8,16.6,16.2,25.6c5.3,13.9,7.5,30.1,7.2,48.6c0,6.6-0.8,13.2-1.8,19.7
	c-0.5,3.1-1.2,6.3-1.5,9.4c-0.3,3.2-0.1,6.5,0.2,9.7c0.3,3,0.7,6,0.8,9c0.2,2.8,0.7,5.8,0.3,8.6
	C-340.7,580.5-340.8,580.6-340.8,580.6z M-300.1,517.4c0,6.8-1.1,14.3-2.3,21.5l-0.4,2.6c-0.4,4.1,0.4,8.3,1.1,12.1
	c0.4,1.9,1.1,5.7,1.1,7.5c0,0,0,0-0.4,0c-4.2,0-8.1-0.7-12.2-1.3c-3.6-0.5-7.3-0.9-11-1c-0.9,0-9.8,0.3-9.8,0.8c0-1.1,0-1.9,0-2.6
	l0.4-3c1.5-9.4,2.6-19.2,3-28.6c0.4-19.6-2.3-37.3-7.9-52.4c-3.4-8.7-8.3-17-14.7-24.9c1.1,0,1.9,0,3,0c4.9,0,11.3-0.4,17-3
	c0,0,0.4,0,0.8,0c2.3,1.9,7.9,7.5,13.9,13.9c5.7,6,9.8,12.8,12.8,20C-301.6,489.9-299.7,503.1-300.1,517.4z"/>
</svg>
