<?xml version="1.0" encoding="utf-8"?>
<!-- Generator: Adobe Illustrator 21.1.0, SVG Export Plug-In . SVG Version: 6.00 Build 0)  -->
<svg version="1.1" id="Layer_1" xmlns="http://www.w3.org/2000/svg" xmlns:xlink="http://www.w3.org/1999/xlink" x="0px" y="0px"
	 viewBox="-527 405.9 243.3 186.2" style="enable-background:new -527 405.9 243.3 186.2;" xml:space="preserve">
<style type="text/css">
	.st0{fill:#EBEBEB;}
	.st1{fill:#59C1A2;}
	.st2{fill:#002841;}
</style>
<path id="XMLID_66_" class="st0" d="M-471.9,585c-17.5,0-31.7-15-31.7-32.5s14.2-32.5,31.7-32.5h32.6c18.5,0,33.5-14,33.5-32.5
	s-15-32.5-33.5-32.5h-62l-0.6,1.7v-0.1c0,1,0,1.9,0,2.9c0,0.2,0,0.2-0.1,0.4l-0.8,1.2h63.5c14.5,0,26.3,12,26.3,26.5
	s-11.8,26.5-26.3,26.5h-32.6c-21.5,0-39,17.5-39,39s17.5,39,39,39h133v-7L-471.9,585L-471.9,585z"/>
<path class="st1" d="M-341,405.9c-31.5,0-57.3,25-57.3,57.4c0,7.9,1.9,17.8,4.5,24.7c15.6,33,31.4,66.1,47.1,99.1
	c1,2.2,3.4,3.7,5.8,3.7s4.8-1.5,5.8-3.7c15.5-33.1,31.7-66,47.1-99.1c2.6-7,4.5-16.8,4.5-24.7C-283.6,430.9-309.6,405.9-341,405.9z
	 M-300,483.4c-13.6,28.7-27.3,57.4-40.9,86.1c-13.4-28.8-27.7-57.8-40.9-86.1c-1.8-4.8-3.7-14.7-3.7-20.1
	c0-25.7,19.7-44.6,44.5-44.6l0,0c24.9,0,44.7,19,44.7,44.6C-296.3,468.7-298.2,478.6-300,483.4z"/>
<path class="st1" d="M-340.9,434.6c-15.8,0-28.7,12.9-28.7,28.7c0,15.8,12.9,28.7,28.7,28.7s28.7-12.9,28.7-28.7
	C-312.3,447.5-325.2,434.6-340.9,434.6z M-340.9,479.2c-8.9,0-15.9-7.1-15.9-15.9c0-8.9,7.1-15.9,15.9-15.9
	c8.9,0,15.9,7.1,15.9,15.9C-325,472.2-332.1,479.2-340.9,479.2z"/>
<g>
	<path class="st2" d="M-511.2,475.5c-8.8,0-16-7.2-16-16s7.2-16,16-16c8.8,0,16,7.2,16,16S-502.4,475.5-511.2,475.5z M-511.2,452.5
		c-3.9,0-7,3.2-7,7s3.2,7,7,7c3.8,0,7-3.2,7-7S-507.3,452.5-511.2,452.5z"/>
</g>
</svg>
