<?xml version="1.0" encoding="utf-8"?>
<!-- Generator: Adobe Illustrator 21.1.0, SVG Export Plug-In . SVG Version: 6.00 Build 0)  -->
<svg version="1.1" id="Layer_1" xmlns="http://www.w3.org/2000/svg" xmlns:xlink="http://www.w3.org/1999/xlink" x="0px" y="0px"
	 viewBox="-526 387 191.2 204.9" style="enable-background:new -526 387 191.2 204.9;" xml:space="preserve">
<style type="text/css">
	.st0{fill:#59C1A2;}
</style>
<g>
	<circle class="st0" cx="-471.4" cy="503.5" r="6.8"/>
	<path class="st0" d="M-336.3,518.5c-2-2-2-5.9-1.6-10.4c0.3-6.8,0.7-15.6-8.8-20.5c-3.9-2-8.8-2.3-12-1c-0.3,0-0.7,0.3-1,0.3
		l-1.3,0.7l-0.7-1.3c-5.9-10.1-15-18.2-26.4-24.1c-10.7-5.5-28.3-9.1-46.5-9.1c-11.1,0-21.5,1.3-29.3,3.6h-0.7l-0.6-0.4
		c-5.2-2.9-10.7-5.2-17.3-7.2c-1-0.3-2.3-0.7-3.6-0.7c-3.9,0-8.1,2-10.4,4.9c-2.3,3.3-3.3,7.2-2,11.1c1,2.9,2,6.8,2.9,9.8l0.3,0.7
		l-0.7,0.7c-5.2,5.5-9.4,11.7-12,18.6l-0.7,1.6c-2.9,0-6.3,0.3-9.1,1c-4.5,1.1-8.2,5.4-8.2,10.1c0,6.5,0,13.3,0,20.5
		c0,5.5,3.9,9.8,9.4,10.7l7.8,1.3l0.3,0.7c3.3,7.5,7.8,14.3,13.7,20.2l0.7,0.7c-0.8,6.1-2,12.1-2.6,18.2c-0.3,3.3,0.7,6.5,2.6,8.8
		c2.3,2.6,5.2,3.9,8.5,3.9h20.2c2.6,0,4.9-0.7,6.8-2.3l1-1c1.6-1.6,2.6-3.6,2.9-6.2l0.3-2.6h1.3c10.7,0,36.8-0.7,44.6-1h1.3l0.3,2.6
		c1,6.8,6.2,10.1,10.7,10.1h10.7h9.8c3.3,0,6.5-1.3,8.8-3.9c2.3-2.6,3.3-5.9,2.6-9.1l-1.3-11.2c-0.3-2.9-0.7-5.5-1-8.5l0.3-4.6
		l0.3-0.3c9.8-13,14.3-29.9,12-45.9c-0.3-1.3-0.7-2.9-0.7-4.2c-0.7-2.6-1-4.9-0.7-7.5l0.3-1h1.3c0.7,0,1.6,0.3,2.6,0.7
		c3.6,2,3.6,5.2,3.3,11.4c-0.3,5.9-0.3,12.4,4.6,17.6c1,1,2.3,1.3,3.6,1.3c1.3,0,2.6-0.7,3.6-1.3
		C-334.3,523.4-334.3,520.4-336.3,518.5z M-374.7,549.1c-1.3,1.6-2,3.3-1.6,5.5c0.7,4.9,1.3,9.8,2,14.6l1.6,12.7h-11.1
		c-4.1,0-8.3,0.4-12.3,0c0.1,0-0.1-4.6-0.1-5c-0.2-1.7-0.7-3.7-1.7-5.2c-1.8-2.7-5.1-3.2-8.1-2.8c-5,0.5-10.1,0.4-15.2,0.5
		c-8.3,0.2-16.7,0.4-25,0.5c-4.5,0.1-9-0.3-13.5-0.3c-1.4,0-1.6-0.2-2.2,1.1c-0.4,1-2.2,10.6-2.5,10.6h-22.7
		c0.7-4.7,1.7-9.4,2.2-14.2c0.4-3.8,1.5-9.7-1.6-12.6c-6.8-6.2-11.4-13-14.3-21.2c-0.7-2.3-2.3-3.6-4.9-3.9c-2.3-0.3-4.2-0.7-6.5-1
		l-3.6-0.3v-1.3c0-6.8,0-13,0-19.2v-1.3h1.3c2.6-0.3,5.9-0.7,8.8-1c2.6-0.3,4.6-1.6,5.5-4.2c2.6-7.2,6.8-14,12.7-19.5
		c2-2,2.6-3.9,1.6-6.8s-2.3-8.1-3.6-12c-0.3-1,0-1.6,0.3-2.3c0.3-0.3,1-1,2.3-1h0.7c6.5,2,12,4.6,17.3,7.5c0.7,0.3,2,0.7,3.3,0.7
		c1,0,2-0.3,2.6-0.3c7.2-2.3,17.3-3.6,28-3.6c16.9,0,32.6,2.9,42,7.8c14,7.2,23.1,17.9,27.3,31.9c0,0.3,0.3,0.7,0.3,0.7l0.7,2.3
		c0.3,1,0.3,2.3,0.7,3.3C-362,523.4-365.9,538-374.7,549.1z"/>
	<path class="st0" d="M-407.5,482.1c-4.9-1.3-10.6-1.3-15.6-1.5c-9.7-0.5-20.1-0.4-29.7,1.4c-1.6,0.3-2.9,1-3.9,2
		c-0.7,1-1,2.6-0.7,3.9c1,3.3,3.3,4.6,6.8,3.6c13.3-2.6,27.3-2.6,40.4,0.3c0.7,0,1.3,0.3,2,0.3c2.6,0,4.6-1.3,5.2-3.9
		c0.3-1.3,0.3-2.6-0.7-3.9C-404.6,483.1-406,482.5-407.5,482.1z"/>
	<path class="st0" d="M-430.4,441.6c15,0,27.3-12.4,27.3-27.3s-12.3-27.3-27.3-27.3s-27.3,12.3-27.3,27.3S-445.3,441.6-430.4,441.6z
		 M-430.4,394.8c10.7,0,19.2,8.8,19.2,19.2c0,10.7-8.8,19.2-19.2,19.2c-10.4,0-19.2-8.8-19.2-19.2S-441.1,394.8-430.4,394.8z"/>
</g>
</svg>
