<?xml version="1.0" encoding="utf-8"?>
<!-- Generator: Adobe Illustrator 19.0.0, SVG Export Plug-In . SVG Version: 6.00 Build 0)  -->
<svg version="1.1" id="Layer_1" xmlns="http://www.w3.org/2000/svg" xmlns:xlink="http://www.w3.org/1999/xlink" x="0px" y="0px"
	 viewBox="0 0 30.1 30.1" style="enable-background:new 0 0 30.1 30.1;" xml:space="preserve">
<style type="text/css">
	.st0{fill:#045D48;}
	.st1{fill:#FFFFFF;}
</style>
<rect x="2.5" y="2.5" class="st0" width="24.6" height="24.6"/>
<g id="XMLID_184_">
	<path id="XMLID_188_" class="st1" d="M16.4,13L16.4,13C16.4,13,16.4,13,16.4,13L16.4,13z"/>
	<rect id="XMLID_187_" x="10" y="11.9" class="st1" width="2.5" height="7.6"/>
	<path id="XMLID_186_" class="st1" d="M11.2,10.8L11.2,10.8c-0.9,0-1.4-0.6-1.4-1.3c0-0.7,0.6-1.3,1.4-1.3c0.9,0,1.4,0.6,1.4,1.3
		C12.6,10.3,12.1,10.8,11.2,10.8z"/>
	<path id="XMLID_185_" class="st1" d="M21.5,19.4H19v-4c0-1-0.4-1.7-1.3-1.7c-0.7,0-1.1,0.5-1.3,0.9c-0.1,0.2-0.1,0.4-0.1,0.6v4.2
		h-2.5c0,0,0-6.9,0-7.6h2.5v1.1c0.3-0.5,0.9-1.2,2.3-1.2c1.7,0,2.9,1.1,2.9,3.4V19.4z"/>
</g>
</svg>
